<svg xmlns="http://www.w3.org/2000/svg" xmlns:xlink="http://www.w3.org/1999/xlink" width="20.664" height="24.226" viewBox="0 0 20.664 24.226"><defs><style>.a{fill:#fff;}.b{clip-path:url(#a);}</style><clipPath id="a"><rect class="a" width="20.664" height="24.226"/></clipPath></defs><g class="b"><path class="a" d="M1.506,164.715H1.444A1.448,1.448,0,0,0,0,166.159v6.288a1.447,1.447,0,0,0,1.444,1.445h.063a1.448,1.448,0,0,0,1.444-1.445v-6.288a1.45,1.45,0,0,0-1.445-1.444" transform="translate(0 -156.816)"/><path class="a" d="M75.951,179.453a1.329,1.329,0,0,0,1.327,1.325H78.7v3.4a1.449,1.449,0,0,0,1.444,1.446H80.2a1.449,1.449,0,0,0,1.446-1.446v-3.4h1.982v3.4a1.45,1.45,0,0,0,1.446,1.446h.061a1.448,1.448,0,0,0,1.445-1.446v-3.4H88a1.329,1.329,0,0,0,1.326-1.325v-9.928H75.951Z" transform="translate(-72.309 -161.395)"/><path class="a" d="M85.089,2.11,86.215.371a.239.239,0,0,0-.07-.331.237.237,0,0,0-.331.07l-1.168,1.8a7.722,7.722,0,0,0-5.778,0L77.7.11a.24.24,0,0,0-.4.261L78.427,2.11a5.7,5.7,0,0,0-3.4,5.028c0,.132.008.263.02.392H88.474c.011-.129.019-.26.019-.392a5.705,5.705,0,0,0-3.4-5.028M78.644,5.223a.645.645,0,1,1,.647-.646.645.645,0,0,1-.647.646m6.227,0a.645.645,0,1,1,.646-.646.645.645,0,0,1-.646.646" transform="translate(-71.425 0)"/><path class="a" d="M370.841,164.715h-.06a1.45,1.45,0,0,0-1.446,1.444v6.288a1.449,1.449,0,0,0,1.446,1.445h.061a1.448,1.448,0,0,0,1.444-1.445v-6.288a1.449,1.449,0,0,0-1.445-1.444" transform="translate(-351.622 -156.816)"/></g></svg>