<?xml version="1.0" encoding="utf-8"?>
<!-- Generator: Adobe Illustrator 23.0.2, SVG Export Plug-In . SVG Version: 6.00 Build 0)  -->
<svg version="1.1" id="Layer_1" xmlns="http://www.w3.org/2000/svg" xmlns:xlink="http://www.w3.org/1999/xlink" x="0px" y="0px"
	 viewBox="0 0 200 72" style="enable-background:new 0 0 200 72;" xml:space="preserve">
<style type="text/css">
	.st0{fill:#96C354;}
	.st1{fill:#C0DA95;}
	.st2{fill:#DFEBCA;}
	.st3{fill:#FFFFFF;}
</style>
<title>Gaiachain logo</title>
<polygon class="st0" points="30.4,0.9 0,18.4 0,53.6 30.4,71.1 60.8,53.6 60.8,18.4 "/>
<polygon class="st1" points="0,53.6 30.4,36 0,18.4 "/>
<polygon class="st2" points="30.4,0.9 0,18.4 30.4,36 60.8,53.6 60.8,18.4 "/>
<polygon class="st0" points="0,53.6 30.4,71.1 60.8,53.6 30.4,36 "/>
<g>
	<path class="st3" d="M88.4,46.7c-1.2,0.4-2.6,0.6-4.1,0.6c-1.8,0-3.3-0.3-4.7-0.8S77,45.2,76,44.2c-1-1-1.8-2.2-2.3-3.5
		c-0.5-1.4-0.8-2.9-0.8-4.5c0-1.7,0.3-3.2,0.8-4.6c0.5-1.4,1.3-2.5,2.2-3.5c1-1,2.1-1.7,3.5-2.3c1.4-0.5,2.9-0.8,4.6-0.8
		c0.9,0,1.7,0.1,2.4,0.2c0.7,0.1,1.4,0.3,2.1,0.5c0.6,0.2,1.2,0.5,1.7,0.9c0.5,0.3,1,0.7,1.5,1.1l-0.8,1.3c-0.1,0.2-0.3,0.3-0.5,0.4
		c-0.2,0.1-0.4,0-0.7-0.1c-0.2-0.1-0.5-0.3-0.8-0.5c-0.3-0.2-0.7-0.4-1.1-0.6c-0.5-0.2-1-0.3-1.6-0.5c-0.6-0.1-1.3-0.2-2.2-0.2
		c-1.2,0-2.3,0.2-3.3,0.6c-1,0.4-1.8,1-2.5,1.7c-0.7,0.7-1.2,1.6-1.6,2.7c-0.4,1.1-0.6,2.2-0.6,3.6c0,1.4,0.2,2.6,0.6,3.7
		c0.4,1.1,0.9,2,1.7,2.8c0.7,0.8,1.6,1.3,2.6,1.7c1,0.4,2.2,0.6,3.5,0.6c0.5,0,1,0,1.4-0.1c0.4-0.1,0.9-0.1,1.3-0.3
		c0.4-0.1,0.8-0.2,1.2-0.4c0.4-0.2,0.8-0.3,1.1-0.5v-4.8h-3.4c-0.2,0-0.3-0.1-0.5-0.2c-0.1-0.1-0.2-0.2-0.2-0.4v-1.7h6.7V45
		C90.8,45.8,89.7,46.4,88.4,46.7z"/>
	<path class="st3" d="M105.4,47.1c-0.3,0-0.5,0-0.6-0.1c-0.1-0.1-0.3-0.3-0.3-0.5l-0.3-1.4c-0.4,0.4-0.8,0.7-1.2,1
		c-0.4,0.3-0.8,0.5-1.2,0.7c-0.4,0.2-0.9,0.3-1.4,0.5c-0.5,0.1-1,0.2-1.6,0.2c-0.6,0-1.2-0.1-1.7-0.3c-0.5-0.2-1-0.4-1.4-0.8
		c-0.4-0.3-0.7-0.8-0.9-1.3c-0.2-0.5-0.3-1.1-0.3-1.8c0-0.6,0.2-1.2,0.5-1.8c0.3-0.6,0.9-1.1,1.6-1.5c0.8-0.4,1.7-0.8,2.9-1.1
		c1.2-0.3,2.7-0.4,4.4-0.5v-1.2c0-1.2-0.3-2.1-0.8-2.7s-1.3-0.9-2.3-0.9c-0.7,0-1.2,0.1-1.7,0.3c-0.5,0.2-0.8,0.4-1.2,0.6
		c-0.3,0.2-0.6,0.4-0.9,0.6c-0.2,0.2-0.5,0.3-0.7,0.3c-0.2,0-0.3,0-0.5-0.1c-0.1-0.1-0.2-0.2-0.3-0.4l-0.5-0.9
		C96.1,33,97,32.4,98,32c1-0.4,2.1-0.6,3.3-0.6c0.9,0,1.6,0.1,2.3,0.4c0.7,0.3,1.2,0.7,1.7,1.2c0.5,0.5,0.8,1.1,1,1.8
		c0.2,0.7,0.3,1.5,0.3,2.4v9.9L105.4,47.1L105.4,47.1z M99.6,45.4c0.5,0,0.9,0,1.3-0.1c0.4-0.1,0.8-0.2,1.1-0.4s0.7-0.4,1-0.7
		s0.6-0.6,0.9-0.9v-3.2c-1.2,0-2.3,0.1-3.2,0.3c-0.9,0.2-1.6,0.4-2.1,0.6c-0.6,0.3-1,0.6-1.2,0.9c-0.2,0.3-0.4,0.7-0.4,1.2
		c0,0.4,0.1,0.8,0.2,1.1c0.1,0.3,0.3,0.5,0.5,0.7c0.2,0.2,0.5,0.3,0.8,0.4C98.9,45.4,99.3,45.4,99.6,45.4z"/>
	<path class="st3" d="M114.2,26.8c0,0.3-0.1,0.5-0.2,0.7c-0.1,0.2-0.2,0.4-0.4,0.6c-0.2,0.2-0.4,0.3-0.6,0.4
		c-0.2,0.1-0.5,0.2-0.8,0.2c-0.3,0-0.5-0.1-0.7-0.2c-0.2-0.1-0.4-0.2-0.6-0.4c-0.2-0.2-0.3-0.4-0.4-0.6c-0.1-0.2-0.2-0.5-0.2-0.7
		c0-0.3,0.1-0.5,0.2-0.8c0.1-0.2,0.2-0.4,0.4-0.6c0.2-0.2,0.4-0.3,0.6-0.4c0.2-0.1,0.5-0.2,0.7-0.2c0.3,0,0.5,0.1,0.8,0.2
		c0.2,0.1,0.4,0.2,0.6,0.4c0.2,0.2,0.3,0.4,0.4,0.6C114.2,26.3,114.2,26.6,114.2,26.8z M113.6,31.7v15.4h-2.7V31.7H113.6z"/>
	<path class="st3" d="M127.9,47.1c-0.3,0-0.5,0-0.6-0.1c-0.1-0.1-0.3-0.3-0.3-0.5l-0.3-1.4c-0.4,0.4-0.8,0.7-1.2,1
		c-0.4,0.3-0.8,0.5-1.2,0.7c-0.4,0.2-0.9,0.3-1.4,0.5c-0.5,0.1-1,0.2-1.6,0.2c-0.6,0-1.2-0.1-1.7-0.3c-0.5-0.2-1-0.4-1.4-0.8
		c-0.4-0.3-0.7-0.8-0.9-1.3c-0.2-0.5-0.3-1.1-0.3-1.8c0-0.6,0.2-1.2,0.5-1.8c0.3-0.6,0.9-1.1,1.6-1.5c0.8-0.4,1.7-0.8,2.9-1.1
		c1.2-0.3,2.7-0.4,4.4-0.5v-1.2c0-1.2-0.3-2.1-0.8-2.7s-1.3-0.9-2.3-0.9c-0.7,0-1.2,0.1-1.7,0.3c-0.5,0.2-0.8,0.4-1.2,0.6
		c-0.3,0.2-0.6,0.4-0.9,0.6c-0.2,0.2-0.5,0.3-0.7,0.3c-0.2,0-0.3,0-0.5-0.1c-0.1-0.1-0.2-0.2-0.3-0.4l-0.5-0.9
		c0.9-0.8,1.8-1.4,2.8-1.8c1-0.4,2.1-0.6,3.3-0.6c0.9,0,1.6,0.1,2.3,0.4c0.7,0.3,1.2,0.7,1.7,1.2c0.5,0.5,0.8,1.1,1,1.8
		c0.2,0.7,0.3,1.5,0.3,2.4v9.9L127.9,47.1L127.9,47.1z M122.1,45.4c0.5,0,0.9,0,1.3-0.1c0.4-0.1,0.8-0.2,1.1-0.4s0.7-0.4,1-0.7
		s0.6-0.6,0.9-0.9v-3.2c-1.2,0-2.3,0.1-3.2,0.3c-0.9,0.2-1.6,0.4-2.1,0.6c-0.6,0.3-1,0.6-1.2,0.9c-0.2,0.3-0.4,0.7-0.4,1.2
		c0,0.4,0.1,0.8,0.2,1.1c0.1,0.3,0.3,0.5,0.5,0.7c0.2,0.2,0.5,0.3,0.8,0.4C121.4,45.4,121.7,45.4,122.1,45.4z"/>
	<path class="st3" d="M143.9,34.4c-0.1,0.1-0.2,0.2-0.2,0.3c-0.1,0.1-0.2,0.1-0.3,0.1c-0.2,0-0.3-0.1-0.5-0.2
		c-0.2-0.1-0.4-0.3-0.7-0.4c-0.3-0.2-0.6-0.3-1-0.4c-0.4-0.1-0.9-0.2-1.4-0.2c-0.8,0-1.4,0.1-2,0.4c-0.6,0.3-1.1,0.7-1.5,1.2
		c-0.4,0.5-0.7,1.1-0.9,1.8c-0.2,0.7-0.3,1.5-0.3,2.4c0,0.9,0.1,1.8,0.3,2.5c0.2,0.7,0.5,1.3,0.9,1.8s0.9,0.9,1.4,1.1
		c0.6,0.3,1.2,0.4,1.9,0.4c0.7,0,1.2-0.1,1.6-0.2c0.4-0.2,0.8-0.3,1.1-0.5c0.3-0.2,0.5-0.4,0.7-0.5c0.2-0.2,0.4-0.2,0.6-0.2
		c0.2,0,0.4,0.1,0.5,0.3l0.8,1c-0.3,0.4-0.7,0.8-1.1,1.1c-0.4,0.3-0.9,0.5-1.4,0.7c-0.5,0.2-1,0.3-1.5,0.4c-0.5,0.1-1.1,0.1-1.6,0.1
		c-1,0-1.9-0.2-2.7-0.5c-0.8-0.4-1.5-0.9-2.2-1.5c-0.6-0.7-1.1-1.5-1.4-2.5c-0.3-1-0.5-2.1-0.5-3.4c0-1.1,0.2-2.2,0.5-3.2
		s0.8-1.8,1.4-2.5c0.6-0.7,1.4-1.3,2.3-1.7c0.9-0.4,1.9-0.6,3.1-0.6c1.1,0,2,0.2,2.9,0.5c0.8,0.3,1.6,0.8,2.2,1.5L143.9,34.4z"/>
	<path class="st3" d="M147.7,47.1V24.7h2.7v9.1c0.7-0.7,1.4-1.3,2.2-1.7c0.8-0.4,1.7-0.6,2.8-0.6c0.8,0,1.6,0.1,2.2,0.4
		c0.6,0.3,1.2,0.7,1.6,1.2c0.4,0.5,0.8,1.1,1,1.8c0.2,0.7,0.3,1.5,0.3,2.4v9.8h-2.7v-9.8c0-1.2-0.3-2.1-0.8-2.7
		c-0.5-0.6-1.3-1-2.4-1c-0.8,0-1.6,0.2-2.3,0.6c-0.7,0.4-1.3,0.9-1.9,1.6v11.4C150.5,47.1,147.7,47.1,147.7,47.1z"/>
	<path class="st3" d="M174.5,47.1c-0.3,0-0.5,0-0.6-0.1c-0.1-0.1-0.3-0.3-0.3-0.5l-0.3-1.4c-0.4,0.4-0.8,0.7-1.2,1
		c-0.4,0.3-0.8,0.5-1.2,0.7c-0.4,0.2-0.9,0.3-1.4,0.5c-0.5,0.1-1,0.2-1.6,0.2c-0.6,0-1.2-0.1-1.7-0.3c-0.5-0.2-1-0.4-1.4-0.8
		c-0.4-0.3-0.7-0.8-0.9-1.3c-0.2-0.5-0.3-1.1-0.3-1.8c0-0.6,0.2-1.2,0.5-1.8c0.3-0.6,0.9-1.1,1.6-1.5c0.8-0.4,1.7-0.8,2.9-1.1
		s2.7-0.4,4.4-0.5v-1.2c0-1.2-0.3-2.1-0.8-2.7c-0.5-0.6-1.3-0.9-2.3-0.9c-0.7,0-1.2,0.1-1.7,0.3c-0.5,0.2-0.8,0.4-1.2,0.6
		c-0.3,0.2-0.6,0.4-0.9,0.6c-0.2,0.2-0.5,0.3-0.7,0.3c-0.2,0-0.3,0-0.5-0.1c-0.1-0.1-0.2-0.2-0.3-0.4l-0.5-0.9
		c0.9-0.8,1.8-1.4,2.8-1.8c1-0.4,2.1-0.6,3.3-0.6c0.9,0,1.6,0.1,2.3,0.4c0.7,0.3,1.2,0.7,1.7,1.2c0.5,0.5,0.8,1.1,1,1.8
		c0.2,0.7,0.3,1.5,0.3,2.4v9.9L174.5,47.1L174.5,47.1z M168.7,45.4c0.5,0,0.9,0,1.3-0.1c0.4-0.1,0.8-0.2,1.1-0.4s0.7-0.4,1-0.7
		s0.6-0.6,0.9-0.9v-3.2c-1.2,0-2.3,0.1-3.2,0.3c-0.9,0.2-1.6,0.4-2.1,0.6c-0.6,0.3-1,0.6-1.2,0.9s-0.4,0.7-0.4,1.2
		c0,0.4,0.1,0.8,0.2,1.1c0.1,0.3,0.3,0.5,0.5,0.7s0.5,0.3,0.8,0.4C168,45.4,168.4,45.4,168.7,45.4z"/>
	<path class="st3" d="M183.3,26.8c0,0.3-0.1,0.5-0.2,0.7c-0.1,0.2-0.2,0.4-0.4,0.6c-0.2,0.2-0.4,0.3-0.6,0.4
		c-0.2,0.1-0.5,0.2-0.8,0.2c-0.3,0-0.5-0.1-0.7-0.2s-0.4-0.2-0.6-0.4c-0.2-0.2-0.3-0.4-0.4-0.6c-0.1-0.2-0.2-0.5-0.2-0.7
		c0-0.3,0.1-0.5,0.2-0.8c0.1-0.2,0.2-0.4,0.4-0.6s0.4-0.3,0.6-0.4s0.5-0.2,0.7-0.2c0.3,0,0.5,0.1,0.8,0.2c0.2,0.1,0.4,0.2,0.6,0.4
		c0.2,0.2,0.3,0.4,0.4,0.6C183.2,26.3,183.3,26.6,183.3,26.8z M182.7,31.7v15.4H180V31.7H182.7z"/>
	<path class="st3" d="M187.2,47.1V31.7h1.6c0.4,0,0.6,0.2,0.7,0.6l0.2,1.7c0.7-0.7,1.4-1.3,2.3-1.8c0.8-0.5,1.8-0.7,2.9-0.7
		c0.8,0,1.6,0.1,2.2,0.4c0.6,0.3,1.2,0.7,1.6,1.2c0.4,0.5,0.8,1.1,1,1.8c0.2,0.7,0.3,1.5,0.3,2.4v9.8h-2.7v-9.8
		c0-1.2-0.3-2.1-0.8-2.7c-0.5-0.6-1.3-1-2.4-1c-0.8,0-1.6,0.2-2.3,0.6c-0.7,0.4-1.3,0.9-1.9,1.6v11.4
		C189.9,47.1,187.2,47.1,187.2,47.1z"/>
</g>
</svg>
