<svg xmlns="http://www.w3.org/2000/svg" width="30.195" height="30.612" viewBox="0 0 30.195 30.612"><defs><style>.a{stroke:#000;stroke-width:0.5px;}</style></defs><g transform="translate(0.25 0.289)"><path class="a" d="M6.905,0,0,3.991v7.969L6.905,15.95l6.905-3.991V3.991ZM12.76,11.355,6.905,14.742,1.05,11.355V4.595L6.905,1.208,12.76,4.595Z"/><g transform="translate(15.885)"><path class="a" d="M127.905,0,121,3.991v7.969l6.905,3.991,6.905-3.991V3.991Zm5.855,11.355-5.855,3.387-5.855-3.387V4.595l5.855-3.387,5.855,3.387Z" transform="translate(-121)"/></g><g transform="translate(7.942 14.084)"><path class="a" d="M67.405,100,60.5,103.991v7.969l6.905,3.991,6.905-3.991v-7.969Zm5.855,11.355-5.855,3.387-5.855-3.387v-6.761l5.855-3.387,5.855,3.387Z" transform="translate(-60.5 -100)"/></g></g></svg>