<svg xmlns="http://www.w3.org/2000/svg" width="28.227" height="28.227" viewBox="0 0 28.227 28.227"><g transform="translate(-87.828 -0.3)"><g transform="translate(87.828 0.3)"><path d="M113.7,2.946H109.88V1.182a.882.882,0,1,0-1.764,0V2.946h-5.293V1.182a.882.882,0,1,0-1.764,0V2.946H95.767V1.182a.882.882,0,0,0-1.764,0V2.946H90.181A2.352,2.352,0,0,0,87.828,5.3V26.174a2.352,2.352,0,0,0,2.353,2.353H113.7a2.352,2.352,0,0,0,2.352-2.353V5.3A2.351,2.351,0,0,0,113.7,2.946Zm.587,23.228a.589.589,0,0,1-.587.588H90.181a.589.589,0,0,1-.588-.588V5.3a.589.589,0,0,1,.588-.587H94V6.475a.882.882,0,0,0,1.764,0V4.71h5.293V6.475a.882.882,0,1,0,1.764,0V4.71h5.293V6.475a.882.882,0,1,0,1.764,0V4.71H113.7a.588.588,0,0,1,.587.587Z" transform="translate(-87.828 -0.3)"/><rect width="4" height="2" transform="translate(6.037 10.037)"/><rect width="4" height="2" transform="translate(6.037 15.037)"/><rect width="4" height="2" transform="translate(6.037 20.037)"/><rect width="4" height="2" transform="translate(12.037 20.037)"/><rect width="4" height="2" transform="translate(12.037 15.037)"/><rect width="4" height="2" transform="translate(12.037 10.037)"/><rect width="4" height="2" transform="translate(18.037 20.037)"/><rect width="4" height="2" transform="translate(18.037 15.037)"/><rect width="4" height="2" transform="translate(18.037 10.037)"/></g></g></svg>